<?xml version="1.0" encoding="UTF-8"?> <svg xmlns="http://www.w3.org/2000/svg" width="360" height="35" viewBox="0 0 360 35" fill="none"><g clip-path="url(#clip0_5432_4647)"><path d="M34.3579 0.570351L0 34.9626H5.32026C7.76907 34.9626 10.0936 33.9796 11.8338 32.2749L35.0913 9.01908C36.0858 8.02365 37.7017 8.02365 38.7086 9.01908L61.9412 32.2749C63.6691 34.0045 66.006 34.9626 68.4548 34.9626H73.7751L39.3923 0.570351C38.0001 -0.823255 35.7626 -0.823255 34.3455 0.570351H34.3579Z" fill="#181818"></path><path d="M141.236 -0.487061C138.787 -0.487061 136.45 0.495934 134.722 2.20061L111.465 25.4564C110.47 26.4518 108.854 26.4518 107.847 25.4564L84.6146 2.20061C82.8868 0.471048 80.5498 -0.487061 78.101 -0.487061H72.7808L107.164 33.9052C108.556 35.2988 110.793 35.2988 112.185 33.9052L146.568 -0.487061H141.248H141.236Z" fill="#181818"></path><path d="M249.145 12.8516H245.962C245.055 12.8516 244.322 13.5857 244.322 14.5065V33.3202C244.322 34.2285 245.055 34.9751 245.962 34.9751H249.145C250.052 34.9751 250.786 34.2409 250.786 33.3202V14.5065C250.786 13.5982 250.052 12.8516 249.145 12.8516Z" fill="#181818"></path><path d="M278.667 2.22525C276.939 0.495688 274.577 -0.462402 272.141 -0.462402H212.661L216.428 3.28291C218.155 5.01247 220.517 5.98302 222.954 5.98302H282.434L278.667 2.23771V2.22525Z" fill="#181818"></path><path d="M179.845 0.570351L145.462 34.9626H150.782C153.231 34.9626 155.568 33.9796 157.296 32.2749L180.553 9.01908C181.548 8.02365 183.164 8.02365 184.17 9.01908L207.428 32.2749C209.156 34.0045 211.493 34.9626 213.941 34.9626H219.262L184.904 0.570351C183.512 -0.823255 181.249 -0.823255 179.882 0.570351" fill="#181818"></path><path d="M344.623 19.6329H349.931C355.649 19.6329 360.261 14.8922 360 9.14354C359.751 3.71843 355.09 -0.449951 349.67 -0.449951H296.666L300.433 3.29536C302.161 5.02492 304.523 5.98303 306.959 5.98303H349.695C351.572 5.98303 353.287 7.37665 353.437 9.25552C353.623 11.3833 351.945 13.175 349.844 13.175H298.295C297.387 13.175 296.642 13.9092 296.642 14.83V33.3201C296.642 34.2284 297.375 34.975 298.295 34.975H301.489C302.397 34.975 303.13 34.2409 303.13 33.3201V19.6205H335.437L348.116 32.2376C349.844 33.992 352.218 34.9626 354.68 34.9626H360L344.611 19.6329V19.5956L344.623 19.6329Z" fill="#181818"></path></g><defs><clipPath id="clip0_5432_4647"><rect width="360" height="35" fill="white"></rect></clipPath></defs></svg> 