<svg width="36" height="31" viewBox="0 0 36 31" fill="none" xmlns="http://www.w3.org/2000/svg">
<path fillRule="evenodd" clip-rule="evenodd" d="M23.5498 0C30.4259 0 36 5.57414 36 12.4502C36 19.3262 30.4259 24.9004 23.5498 24.9004H18.6207V18.1093H22.8935C26.019 18.1093 28.5527 15.5756 28.5527 12.4501C28.5527 9.32461 26.019 6.79091 22.8935 6.79091H18.6207V0H23.5498Z" fill="#77CDF2"/>
<path fillRule="evenodd" clip-rule="evenodd" d="M12.4502 0C5.57415 0 0 5.57414 0 12.4502C0 19.3262 5.57415 24.9004 12.4502 24.9004H17.3793V18.1093H13.1084C9.98292 18.1093 7.44922 15.5756 7.44922 12.4501C7.44922 9.32461 9.98292 6.79091 13.1084 6.79091H17.3793V0H12.4502Z" fill="#3563E9"/>
<path d="M18.6196 23.9004H24.6263L18.6196 30.7892V23.9004Z" fill="#77CDF2"/>
<path d="M13.3496 9.90039C13.3496 8.79582 14.245 7.90039 15.3496 7.90039H16.3496C16.9019 7.90039 17.3496 8.34811 17.3496 8.90039V15.9004C17.3496 16.4527 16.9019 16.9004 16.3496 16.9004H15.3496C14.245 16.9004 13.3496 16.005 13.3496 14.9004V9.90039Z" fill="#3563E9"/>
<path d="M27 11.9216C27 9.75575 25.2443 8 23.0784 8C23.0351 8 23 8.03511 23 8.07843V16.9298C23 16.9686 23.0314 17 23.0702 17C25.2406 17 27 15.2406 27 13.0702V11.9216Z" fill="#77CDF2"/>
</svg>
