<svg width="28" height="28" viewBox="0 0 28 28" fill="none" xmlns="http://www.w3.org/2000/svg">
<rect x="0.5" y="0.5" width="27" height="27" rx="3.5" fill="#EFEFEF"/>
<rect x="0.5" y="0.5" width="27" height="27" rx="3.5" stroke="#EFEFEF"/>
<path d="M8.55556 19.4444H9.66389L17.2667 11.8417L16.1583 10.7333L8.55556 18.3361V19.4444ZM7 21V17.6944L17.2667 7.44722C17.4222 7.30463 17.594 7.19444 17.7819 7.11667C17.9699 7.03889 18.1676 7 18.375 7C18.5824 7 18.7833 7.03889 18.9778 7.11667C19.1722 7.19444 19.3407 7.31111 19.4833 7.46667L20.5528 8.55556C20.7083 8.69815 20.8218 8.86667 20.8931 9.06111C20.9644 9.25556 21 9.45 21 9.64444C21 9.85185 20.9644 10.0495 20.8931 10.2375C20.8218 10.4255 20.7083 10.5972 20.5528 10.7528L10.3056 21H7ZM16.7028 11.2972L16.1583 10.7333L17.2667 11.8417L16.7028 11.2972Z" fill="#101418" fill-opacity="0.4"/>
</svg>
