<svg width="445" height="106" viewBox="0 0 445 106" fill="none" xmlns="http://www.w3.org/2000/svg">
<path d="M2.20818 -0.999276L8.3483 -1L-87.8375 105.417H-95L2.20818 -0.999276Z" fill="url(#paint0_linear_781_8081)"/>
<path d="M11.7103 -0.999276L17.8504 -1L-78.3354 105.417H-85.4979L11.7103 -0.999276Z" fill="url(#paint1_linear_781_8081)"/>
<path d="M21.2124 -0.999276L27.3525 -1L-68.8333 105.417H-75.9958L21.2124 -0.999276Z" fill="url(#paint2_linear_781_8081)"/>
<path d="M30.7145 -0.999276L36.8546 -1L-59.3312 105.417H-66.4937L30.7145 -0.999276Z" fill="url(#paint3_linear_781_8081)"/>
<path d="M40.2166 -0.999276L46.3567 -1L-49.8291 105.417H-56.9916L40.2166 -0.999276Z" fill="url(#paint4_linear_781_8081)"/>
<path d="M49.7187 -0.999276L55.8588 -1L-40.327 105.417H-47.4895L49.7187 -0.999276Z" fill="url(#paint5_linear_781_8081)"/>
<path d="M59.2208 -0.999276L65.3609 -1L-30.8248 105.417H-37.9874L59.2208 -0.999276Z" fill="url(#paint6_linear_781_8081)"/>
<path d="M68.7229 -0.999276L74.863 -1L-21.3227 105.417H-28.4853L68.7229 -0.999276Z" fill="url(#paint7_linear_781_8081)"/>
<path d="M78.225 -0.999276L84.3651 -1L-11.8206 105.417H-18.9832L78.225 -0.999276Z" fill="url(#paint8_linear_781_8081)"/>
<path d="M87.7271 -0.999276L93.8672 -1L-2.31853 105.417H-9.48106L87.7271 -0.999276Z" fill="url(#paint9_linear_781_8081)"/>
<path d="M97.2292 -0.999276L103.369 -1L7.18358 105.417H0.0210495L97.2292 -0.999276Z" fill="url(#paint10_linear_781_8081)"/>
<path d="M106.731 -0.999276L112.871 -1L16.6857 105.417H9.52316L106.731 -0.999276Z" fill="url(#paint11_linear_781_8081)"/>
<path d="M116.233 -0.999276L122.374 -1L26.1878 105.417H19.0253L116.233 -0.999276Z" fill="url(#paint12_linear_781_8081)"/>
<path d="M125.736 -0.999276L131.876 -1L35.6899 105.417H28.5274L125.736 -0.999276Z" fill="url(#paint13_linear_781_8081)"/>
<path d="M135.238 -0.999276L141.378 -1L45.192 105.417H38.0295L135.238 -0.999276Z" fill="url(#paint14_linear_781_8081)"/>
<path d="M144.74 -0.999276L150.88 -1L54.6941 105.417H47.5316L144.74 -0.999276Z" fill="url(#paint15_linear_781_8081)"/>
<path d="M154.242 -0.999276L160.382 -1L64.1962 105.417H57.0337L154.242 -0.999276Z" fill="url(#paint16_linear_781_8081)"/>
<path d="M163.744 -0.999276L169.884 -1L73.6983 105.417H66.5358L163.744 -0.999276Z" fill="url(#paint17_linear_781_8081)"/>
<path d="M173.246 -0.999276L179.386 -1L83.2004 105.417H76.0379L173.246 -0.999276Z" fill="url(#paint18_linear_781_8081)"/>
<path d="M182.748 -0.999276L188.888 -1L92.7025 105.417H85.54L182.748 -0.999276Z" fill="url(#paint19_linear_781_8081)"/>
<path d="M192.25 -0.999276L198.39 -1L102.205 105.417H95.0421L192.25 -0.999276Z" fill="url(#paint20_linear_781_8081)"/>
<path d="M201.752 -0.999276L207.893 -1L111.707 105.417H104.544L201.752 -0.999276Z" fill="url(#paint21_linear_781_8081)"/>
<path d="M211.254 -0.999276L217.395 -1L121.209 105.417H114.046L211.254 -0.999276Z" fill="url(#paint22_linear_781_8081)"/>
<path d="M220.757 -0.999276L226.897 -1L130.711 105.417H123.548L220.757 -0.999276Z" fill="url(#paint23_linear_781_8081)"/>
<path d="M230.259 -0.999276L236.399 -1L140.213 105.417H133.051L230.259 -0.999276Z" fill="url(#paint24_linear_781_8081)"/>
<path d="M239.761 -0.999276L245.901 -1L149.715 105.417H142.553L239.761 -0.999276Z" fill="url(#paint25_linear_781_8081)"/>
<path d="M249.263 -0.999276L255.403 -1L159.217 105.417H152.055L249.263 -0.999276Z" fill="url(#paint26_linear_781_8081)"/>
<path d="M258.765 -0.999276L264.905 -1L168.719 105.417H161.557L258.765 -0.999276Z" fill="url(#paint27_linear_781_8081)"/>
<path d="M268.267 -0.999276L274.407 -1L178.221 105.417H171.059L268.267 -0.999276Z" fill="url(#paint28_linear_781_8081)"/>
<path d="M277.769 -0.999276L283.909 -1L187.724 105.417H180.561L277.769 -0.999276Z" fill="url(#paint29_linear_781_8081)"/>
<path d="M287.271 -0.999276L293.411 -1L197.226 105.417H190.063L287.271 -0.999276Z" fill="url(#paint30_linear_781_8081)"/>
<path d="M296.773 -0.999276L302.914 -1L206.728 105.417H199.565L296.773 -0.999276Z" fill="url(#paint31_linear_781_8081)"/>
<path d="M306.276 -0.999276L312.416 -1L216.23 105.417H209.067L306.276 -0.999276Z" fill="url(#paint32_linear_781_8081)"/>
<path d="M315.778 -0.999276L321.918 -1L225.732 105.417H218.569L315.778 -0.999276Z" fill="url(#paint33_linear_781_8081)"/>
<path d="M325.28 -0.999276L331.42 -1L235.234 105.417H228.072L325.28 -0.999276Z" fill="url(#paint34_linear_781_8081)"/>
<path d="M334.782 -0.999276L340.922 -1L244.736 105.417H237.574L334.782 -0.999276Z" fill="url(#paint35_linear_781_8081)"/>
<path d="M344.284 -0.999276L350.424 -1L254.238 105.417H247.076L344.284 -0.999276Z" fill="url(#paint36_linear_781_8081)"/>
<path d="M353.786 -0.999276L359.926 -1L263.74 105.417H256.578L353.786 -0.999276Z" fill="url(#paint37_linear_781_8081)"/>
<path d="M363.288 -0.999276L369.428 -1L273.243 105.417H266.08L363.288 -0.999276Z" fill="url(#paint38_linear_781_8081)"/>
<path d="M372.79 -0.999276L378.93 -1L282.745 105.417H275.582L372.79 -0.999276Z" fill="url(#paint39_linear_781_8081)"/>
<path d="M382.292 -0.999276L388.433 -1L292.247 105.417H285.084L382.292 -0.999276Z" fill="url(#paint40_linear_781_8081)"/>
<path d="M391.794 -0.999276L397.935 -1L301.749 105.417H294.586L391.794 -0.999276Z" fill="url(#paint41_linear_781_8081)"/>
<path d="M401.297 -0.999276L407.437 -1L311.251 105.417H304.088L401.297 -0.999276Z" fill="url(#paint42_linear_781_8081)"/>
<path d="M410.799 -0.999276L416.939 -1L320.753 105.417H313.591L410.799 -0.999276Z" fill="url(#paint43_linear_781_8081)"/>
<path d="M420.301 -0.999276L426.441 -1L330.255 105.417H323.093L420.301 -0.999276Z" fill="url(#paint44_linear_781_8081)"/>
<path d="M429.803 -0.999276L435.943 -1L339.757 105.417H332.595L429.803 -0.999276Z" fill="url(#paint45_linear_781_8081)"/>
<path d="M439.305 -0.999276L445.445 -1L349.259 105.417H342.097L439.305 -0.999276Z" fill="url(#paint46_linear_781_8081)"/>
<path d="M448.807 -0.999276L454.947 -1L358.762 105.417H351.599L448.807 -0.999276Z" fill="url(#paint47_linear_781_8081)"/>
<path d="M458.309 -0.999276L464.449 -1L368.264 105.417H361.101L458.309 -0.999276Z" fill="url(#paint48_linear_781_8081)"/>
<path d="M467.811 -0.999276L473.951 -1L377.766 105.417H370.603L467.811 -0.999276Z" fill="url(#paint49_linear_781_8081)"/>
<path d="M477.313 -0.999276L483.454 -1L387.268 105.417H380.105L477.313 -0.999276Z" fill="url(#paint50_linear_781_8081)"/>
<path d="M486.816 -0.999276L492.956 -1L396.77 105.417H389.607L486.816 -0.999276Z" fill="url(#paint51_linear_781_8081)"/>
<path d="M496.318 -0.999276L502.458 -1L406.272 105.417H399.109L496.318 -0.999276Z" fill="url(#paint52_linear_781_8081)"/>
<path d="M505.82 -0.999276L511.96 -1L415.774 105.417H408.612L505.82 -0.999276Z" fill="url(#paint53_linear_781_8081)"/>
<path d="M515.322 -0.999276L521.462 -1L425.276 105.417H418.114L515.322 -0.999276Z" fill="url(#paint54_linear_781_8081)"/>
<path d="M524.824 -0.999276L530.964 -1L434.778 105.417H427.616L524.824 -0.999276Z" fill="url(#paint55_linear_781_8081)"/>
<path d="M534.326 -0.999276L540.466 -1L444.28 105.417H437.118L534.326 -0.999276Z" fill="url(#paint56_linear_781_8081)"/>
<defs>
<linearGradient id="paint0_linear_781_8081" x1="204.5" y1="90.5" x2="637" y2="-34.5" gradientUnits="userSpaceOnUse">
<stop stop-color="#2850C5" stop-opacity="0.32"/>
<stop offset="0.351405" stop-color="#1E45B7" stop-opacity="0.377349"/>
<stop offset="1" stop-color="#2850C5"/>
</linearGradient>
<linearGradient id="paint1_linear_781_8081" x1="204.5" y1="90.5" x2="637" y2="-34.5" gradientUnits="userSpaceOnUse">
<stop stop-color="#2850C5" stop-opacity="0.32"/>
<stop offset="0.351405" stop-color="#1E45B7" stop-opacity="0.377349"/>
<stop offset="1" stop-color="#2850C5"/>
</linearGradient>
<linearGradient id="paint2_linear_781_8081" x1="204.5" y1="90.5" x2="637" y2="-34.5" gradientUnits="userSpaceOnUse">
<stop stop-color="#2850C5" stop-opacity="0.32"/>
<stop offset="0.351405" stop-color="#1E45B7" stop-opacity="0.377349"/>
<stop offset="1" stop-color="#2850C5"/>
</linearGradient>
<linearGradient id="paint3_linear_781_8081" x1="204.5" y1="90.5" x2="637" y2="-34.5" gradientUnits="userSpaceOnUse">
<stop stop-color="#2850C5" stop-opacity="0.32"/>
<stop offset="0.351405" stop-color="#1E45B7" stop-opacity="0.377349"/>
<stop offset="1" stop-color="#2850C5"/>
</linearGradient>
<linearGradient id="paint4_linear_781_8081" x1="204.5" y1="90.5" x2="637" y2="-34.5" gradientUnits="userSpaceOnUse">
<stop stop-color="#2850C5" stop-opacity="0.32"/>
<stop offset="0.351405" stop-color="#1E45B7" stop-opacity="0.377349"/>
<stop offset="1" stop-color="#2850C5"/>
</linearGradient>
<linearGradient id="paint5_linear_781_8081" x1="204.5" y1="90.5" x2="637" y2="-34.5" gradientUnits="userSpaceOnUse">
<stop stop-color="#2850C5" stop-opacity="0.32"/>
<stop offset="0.351405" stop-color="#1E45B7" stop-opacity="0.377349"/>
<stop offset="1" stop-color="#2850C5"/>
</linearGradient>
<linearGradient id="paint6_linear_781_8081" x1="204.5" y1="90.5" x2="637" y2="-34.5" gradientUnits="userSpaceOnUse">
<stop stop-color="#2850C5" stop-opacity="0.32"/>
<stop offset="0.351405" stop-color="#1E45B7" stop-opacity="0.377349"/>
<stop offset="1" stop-color="#2850C5"/>
</linearGradient>
<linearGradient id="paint7_linear_781_8081" x1="204.5" y1="90.5" x2="637" y2="-34.5" gradientUnits="userSpaceOnUse">
<stop stop-color="#2850C5" stop-opacity="0.32"/>
<stop offset="0.351405" stop-color="#1E45B7" stop-opacity="0.377349"/>
<stop offset="1" stop-color="#2850C5"/>
</linearGradient>
<linearGradient id="paint8_linear_781_8081" x1="204.5" y1="90.5" x2="637" y2="-34.5" gradientUnits="userSpaceOnUse">
<stop stop-color="#2850C5" stop-opacity="0.32"/>
<stop offset="0.351405" stop-color="#1E45B7" stop-opacity="0.377349"/>
<stop offset="1" stop-color="#2850C5"/>
</linearGradient>
<linearGradient id="paint9_linear_781_8081" x1="204.5" y1="90.5" x2="637" y2="-34.5" gradientUnits="userSpaceOnUse">
<stop stop-color="#2850C5" stop-opacity="0.32"/>
<stop offset="0.351405" stop-color="#1E45B7" stop-opacity="0.377349"/>
<stop offset="1" stop-color="#2850C5"/>
</linearGradient>
<linearGradient id="paint10_linear_781_8081" x1="204.5" y1="90.5" x2="637" y2="-34.5" gradientUnits="userSpaceOnUse">
<stop stop-color="#2850C5" stop-opacity="0.32"/>
<stop offset="0.351405" stop-color="#1E45B7" stop-opacity="0.377349"/>
<stop offset="1" stop-color="#2850C5"/>
</linearGradient>
<linearGradient id="paint11_linear_781_8081" x1="204.5" y1="90.5" x2="637" y2="-34.5" gradientUnits="userSpaceOnUse">
<stop stop-color="#2850C5" stop-opacity="0.32"/>
<stop offset="0.351405" stop-color="#1E45B7" stop-opacity="0.377349"/>
<stop offset="1" stop-color="#2850C5"/>
</linearGradient>
<linearGradient id="paint12_linear_781_8081" x1="204.5" y1="90.5" x2="637" y2="-34.5" gradientUnits="userSpaceOnUse">
<stop stop-color="#2850C5" stop-opacity="0.32"/>
<stop offset="0.351405" stop-color="#1E45B7" stop-opacity="0.377349"/>
<stop offset="1" stop-color="#2850C5"/>
</linearGradient>
<linearGradient id="paint13_linear_781_8081" x1="204.5" y1="90.5" x2="637" y2="-34.5" gradientUnits="userSpaceOnUse">
<stop stop-color="#2850C5" stop-opacity="0.32"/>
<stop offset="0.351405" stop-color="#1E45B7" stop-opacity="0.377349"/>
<stop offset="1" stop-color="#2850C5"/>
</linearGradient>
<linearGradient id="paint14_linear_781_8081" x1="204.5" y1="90.5" x2="637" y2="-34.5" gradientUnits="userSpaceOnUse">
<stop stop-color="#2850C5" stop-opacity="0.32"/>
<stop offset="0.351405" stop-color="#1E45B7" stop-opacity="0.377349"/>
<stop offset="1" stop-color="#2850C5"/>
</linearGradient>
<linearGradient id="paint15_linear_781_8081" x1="204.5" y1="90.5" x2="637" y2="-34.5" gradientUnits="userSpaceOnUse">
<stop stop-color="#2850C5" stop-opacity="0.32"/>
<stop offset="0.351405" stop-color="#1E45B7" stop-opacity="0.377349"/>
<stop offset="1" stop-color="#2850C5"/>
</linearGradient>
<linearGradient id="paint16_linear_781_8081" x1="204.5" y1="90.5" x2="637" y2="-34.5" gradientUnits="userSpaceOnUse">
<stop stop-color="#2850C5" stop-opacity="0.32"/>
<stop offset="0.351405" stop-color="#1E45B7" stop-opacity="0.377349"/>
<stop offset="1" stop-color="#2850C5"/>
</linearGradient>
<linearGradient id="paint17_linear_781_8081" x1="204.5" y1="90.5" x2="637" y2="-34.5" gradientUnits="userSpaceOnUse">
<stop stop-color="#2850C5" stop-opacity="0.32"/>
<stop offset="0.351405" stop-color="#1E45B7" stop-opacity="0.377349"/>
<stop offset="1" stop-color="#2850C5"/>
</linearGradient>
<linearGradient id="paint18_linear_781_8081" x1="204.5" y1="90.5" x2="637" y2="-34.5" gradientUnits="userSpaceOnUse">
<stop stop-color="#2850C5" stop-opacity="0.32"/>
<stop offset="0.351405" stop-color="#1E45B7" stop-opacity="0.377349"/>
<stop offset="1" stop-color="#2850C5"/>
</linearGradient>
<linearGradient id="paint19_linear_781_8081" x1="204.5" y1="90.5" x2="637" y2="-34.5" gradientUnits="userSpaceOnUse">
<stop stop-color="#2850C5" stop-opacity="0.32"/>
<stop offset="0.351405" stop-color="#1E45B7" stop-opacity="0.377349"/>
<stop offset="1" stop-color="#2850C5"/>
</linearGradient>
<linearGradient id="paint20_linear_781_8081" x1="204.5" y1="90.5" x2="637" y2="-34.5" gradientUnits="userSpaceOnUse">
<stop stop-color="#2850C5" stop-opacity="0.32"/>
<stop offset="0.351405" stop-color="#1E45B7" stop-opacity="0.377349"/>
<stop offset="1" stop-color="#2850C5"/>
</linearGradient>
<linearGradient id="paint21_linear_781_8081" x1="204.5" y1="90.5" x2="637" y2="-34.5" gradientUnits="userSpaceOnUse">
<stop stop-color="#2850C5" stop-opacity="0.32"/>
<stop offset="0.351405" stop-color="#1E45B7" stop-opacity="0.377349"/>
<stop offset="1" stop-color="#2850C5"/>
</linearGradient>
<linearGradient id="paint22_linear_781_8081" x1="204.5" y1="90.5" x2="637" y2="-34.5" gradientUnits="userSpaceOnUse">
<stop stop-color="#2850C5" stop-opacity="0.32"/>
<stop offset="0.351405" stop-color="#1E45B7" stop-opacity="0.377349"/>
<stop offset="1" stop-color="#2850C5"/>
</linearGradient>
<linearGradient id="paint23_linear_781_8081" x1="204.5" y1="90.5" x2="637" y2="-34.5" gradientUnits="userSpaceOnUse">
<stop stop-color="#2850C5" stop-opacity="0.32"/>
<stop offset="0.351405" stop-color="#1E45B7" stop-opacity="0.377349"/>
<stop offset="1" stop-color="#2850C5"/>
</linearGradient>
<linearGradient id="paint24_linear_781_8081" x1="204.5" y1="90.5" x2="637" y2="-34.5" gradientUnits="userSpaceOnUse">
<stop stop-color="#2850C5" stop-opacity="0.32"/>
<stop offset="0.351405" stop-color="#1E45B7" stop-opacity="0.377349"/>
<stop offset="1" stop-color="#2850C5"/>
</linearGradient>
<linearGradient id="paint25_linear_781_8081" x1="204.5" y1="90.5" x2="637" y2="-34.5" gradientUnits="userSpaceOnUse">
<stop stop-color="#2850C5" stop-opacity="0.32"/>
<stop offset="0.351405" stop-color="#1E45B7" stop-opacity="0.377349"/>
<stop offset="1" stop-color="#2850C5"/>
</linearGradient>
<linearGradient id="paint26_linear_781_8081" x1="204.5" y1="90.5" x2="637" y2="-34.5" gradientUnits="userSpaceOnUse">
<stop stop-color="#2850C5" stop-opacity="0.32"/>
<stop offset="0.351405" stop-color="#1E45B7" stop-opacity="0.377349"/>
<stop offset="1" stop-color="#2850C5"/>
</linearGradient>
<linearGradient id="paint27_linear_781_8081" x1="204.5" y1="90.5" x2="637" y2="-34.5" gradientUnits="userSpaceOnUse">
<stop stop-color="#2850C5" stop-opacity="0.32"/>
<stop offset="0.351405" stop-color="#1E45B7" stop-opacity="0.377349"/>
<stop offset="1" stop-color="#2850C5"/>
</linearGradient>
<linearGradient id="paint28_linear_781_8081" x1="204.5" y1="90.5" x2="637" y2="-34.5" gradientUnits="userSpaceOnUse">
<stop stop-color="#2850C5" stop-opacity="0.32"/>
<stop offset="0.351405" stop-color="#1E45B7" stop-opacity="0.377349"/>
<stop offset="1" stop-color="#2850C5"/>
</linearGradient>
<linearGradient id="paint29_linear_781_8081" x1="204.5" y1="90.5" x2="637" y2="-34.5" gradientUnits="userSpaceOnUse">
<stop stop-color="#2850C5" stop-opacity="0.32"/>
<stop offset="0.351405" stop-color="#1E45B7" stop-opacity="0.377349"/>
<stop offset="1" stop-color="#2850C5"/>
</linearGradient>
<linearGradient id="paint30_linear_781_8081" x1="204.5" y1="90.5" x2="637" y2="-34.5" gradientUnits="userSpaceOnUse">
<stop stop-color="#2850C5" stop-opacity="0.32"/>
<stop offset="0.351405" stop-color="#1E45B7" stop-opacity="0.377349"/>
<stop offset="1" stop-color="#2850C5"/>
</linearGradient>
<linearGradient id="paint31_linear_781_8081" x1="204.5" y1="90.5" x2="637" y2="-34.5" gradientUnits="userSpaceOnUse">
<stop stop-color="#2850C5" stop-opacity="0.32"/>
<stop offset="0.351405" stop-color="#1E45B7" stop-opacity="0.377349"/>
<stop offset="1" stop-color="#2850C5"/>
</linearGradient>
<linearGradient id="paint32_linear_781_8081" x1="204.5" y1="90.5" x2="637" y2="-34.5" gradientUnits="userSpaceOnUse">
<stop stop-color="#2850C5" stop-opacity="0.32"/>
<stop offset="0.351405" stop-color="#1E45B7" stop-opacity="0.377349"/>
<stop offset="1" stop-color="#2850C5"/>
</linearGradient>
<linearGradient id="paint33_linear_781_8081" x1="204.5" y1="90.5" x2="637" y2="-34.5" gradientUnits="userSpaceOnUse">
<stop stop-color="#2850C5" stop-opacity="0.32"/>
<stop offset="0.351405" stop-color="#1E45B7" stop-opacity="0.377349"/>
<stop offset="1" stop-color="#2850C5"/>
</linearGradient>
<linearGradient id="paint34_linear_781_8081" x1="204.5" y1="90.5" x2="637" y2="-34.5" gradientUnits="userSpaceOnUse">
<stop stop-color="#2850C5" stop-opacity="0.32"/>
<stop offset="0.351405" stop-color="#1E45B7" stop-opacity="0.377349"/>
<stop offset="1" stop-color="#2850C5"/>
</linearGradient>
<linearGradient id="paint35_linear_781_8081" x1="204.5" y1="90.5" x2="637" y2="-34.5" gradientUnits="userSpaceOnUse">
<stop stop-color="#2850C5" stop-opacity="0.32"/>
<stop offset="0.351405" stop-color="#1E45B7" stop-opacity="0.377349"/>
<stop offset="1" stop-color="#2850C5"/>
</linearGradient>
<linearGradient id="paint36_linear_781_8081" x1="204.5" y1="90.5" x2="637" y2="-34.5" gradientUnits="userSpaceOnUse">
<stop stop-color="#2850C5" stop-opacity="0.32"/>
<stop offset="0.351405" stop-color="#1E45B7" stop-opacity="0.377349"/>
<stop offset="1" stop-color="#2850C5"/>
</linearGradient>
<linearGradient id="paint37_linear_781_8081" x1="204.5" y1="90.5" x2="637" y2="-34.5" gradientUnits="userSpaceOnUse">
<stop stop-color="#2850C5" stop-opacity="0.32"/>
<stop offset="0.351405" stop-color="#1E45B7" stop-opacity="0.377349"/>
<stop offset="1" stop-color="#2850C5"/>
</linearGradient>
<linearGradient id="paint38_linear_781_8081" x1="204.5" y1="90.5" x2="637" y2="-34.5" gradientUnits="userSpaceOnUse">
<stop stop-color="#2850C5" stop-opacity="0.32"/>
<stop offset="0.351405" stop-color="#1E45B7" stop-opacity="0.377349"/>
<stop offset="1" stop-color="#2850C5"/>
</linearGradient>
<linearGradient id="paint39_linear_781_8081" x1="204.5" y1="90.5" x2="637" y2="-34.5" gradientUnits="userSpaceOnUse">
<stop stop-color="#2850C5" stop-opacity="0.32"/>
<stop offset="0.351405" stop-color="#1E45B7" stop-opacity="0.377349"/>
<stop offset="1" stop-color="#2850C5"/>
</linearGradient>
<linearGradient id="paint40_linear_781_8081" x1="204.5" y1="90.5" x2="637" y2="-34.5" gradientUnits="userSpaceOnUse">
<stop stop-color="#2850C5" stop-opacity="0.32"/>
<stop offset="0.351405" stop-color="#1E45B7" stop-opacity="0.377349"/>
<stop offset="1" stop-color="#2850C5"/>
</linearGradient>
<linearGradient id="paint41_linear_781_8081" x1="204.5" y1="90.5" x2="637" y2="-34.5" gradientUnits="userSpaceOnUse">
<stop stop-color="#2850C5" stop-opacity="0.32"/>
<stop offset="0.351405" stop-color="#1E45B7" stop-opacity="0.377349"/>
<stop offset="1" stop-color="#2850C5"/>
</linearGradient>
<linearGradient id="paint42_linear_781_8081" x1="204.5" y1="90.5" x2="637" y2="-34.5" gradientUnits="userSpaceOnUse">
<stop stop-color="#2850C5" stop-opacity="0.32"/>
<stop offset="0.351405" stop-color="#1E45B7" stop-opacity="0.377349"/>
<stop offset="1" stop-color="#2850C5"/>
</linearGradient>
<linearGradient id="paint43_linear_781_8081" x1="204.5" y1="90.5" x2="637" y2="-34.5" gradientUnits="userSpaceOnUse">
<stop stop-color="#2850C5" stop-opacity="0.32"/>
<stop offset="0.351405" stop-color="#1E45B7" stop-opacity="0.377349"/>
<stop offset="1" stop-color="#2850C5"/>
</linearGradient>
<linearGradient id="paint44_linear_781_8081" x1="204.5" y1="90.5" x2="637" y2="-34.5" gradientUnits="userSpaceOnUse">
<stop stop-color="#2850C5" stop-opacity="0.32"/>
<stop offset="0.351405" stop-color="#1E45B7" stop-opacity="0.377349"/>
<stop offset="1" stop-color="#2850C5"/>
</linearGradient>
<linearGradient id="paint45_linear_781_8081" x1="204.5" y1="90.5" x2="637" y2="-34.5" gradientUnits="userSpaceOnUse">
<stop stop-color="#2850C5" stop-opacity="0.32"/>
<stop offset="0.351405" stop-color="#1E45B7" stop-opacity="0.377349"/>
<stop offset="1" stop-color="#2850C5"/>
</linearGradient>
<linearGradient id="paint46_linear_781_8081" x1="204.5" y1="90.5" x2="637" y2="-34.5" gradientUnits="userSpaceOnUse">
<stop stop-color="#2850C5" stop-opacity="0.32"/>
<stop offset="0.351405" stop-color="#1E45B7" stop-opacity="0.377349"/>
<stop offset="1" stop-color="#2850C5"/>
</linearGradient>
<linearGradient id="paint47_linear_781_8081" x1="204.5" y1="90.5" x2="637" y2="-34.5" gradientUnits="userSpaceOnUse">
<stop stop-color="#2850C5" stop-opacity="0.32"/>
<stop offset="0.351405" stop-color="#1E45B7" stop-opacity="0.377349"/>
<stop offset="1" stop-color="#2850C5"/>
</linearGradient>
<linearGradient id="paint48_linear_781_8081" x1="204.5" y1="90.5" x2="637" y2="-34.5" gradientUnits="userSpaceOnUse">
<stop stop-color="#2850C5" stop-opacity="0.32"/>
<stop offset="0.351405" stop-color="#1E45B7" stop-opacity="0.377349"/>
<stop offset="1" stop-color="#2850C5"/>
</linearGradient>
<linearGradient id="paint49_linear_781_8081" x1="204.5" y1="90.5" x2="637" y2="-34.5" gradientUnits="userSpaceOnUse">
<stop stop-color="#2850C5" stop-opacity="0.32"/>
<stop offset="0.351405" stop-color="#1E45B7" stop-opacity="0.377349"/>
<stop offset="1" stop-color="#2850C5"/>
</linearGradient>
<linearGradient id="paint50_linear_781_8081" x1="204.5" y1="90.5" x2="637" y2="-34.5" gradientUnits="userSpaceOnUse">
<stop stop-color="#2850C5" stop-opacity="0.32"/>
<stop offset="0.351405" stop-color="#1E45B7" stop-opacity="0.377349"/>
<stop offset="1" stop-color="#2850C5"/>
</linearGradient>
<linearGradient id="paint51_linear_781_8081" x1="204.5" y1="90.5" x2="637" y2="-34.5" gradientUnits="userSpaceOnUse">
<stop stop-color="#2850C5" stop-opacity="0.32"/>
<stop offset="0.351405" stop-color="#1E45B7" stop-opacity="0.377349"/>
<stop offset="1" stop-color="#2850C5"/>
</linearGradient>
<linearGradient id="paint52_linear_781_8081" x1="204.5" y1="90.5" x2="637" y2="-34.5" gradientUnits="userSpaceOnUse">
<stop stop-color="#2850C5" stop-opacity="0.32"/>
<stop offset="0.351405" stop-color="#1E45B7" stop-opacity="0.377349"/>
<stop offset="1" stop-color="#2850C5"/>
</linearGradient>
<linearGradient id="paint53_linear_781_8081" x1="204.5" y1="90.5" x2="637" y2="-34.5" gradientUnits="userSpaceOnUse">
<stop stop-color="#2850C5" stop-opacity="0.32"/>
<stop offset="0.351405" stop-color="#1E45B7" stop-opacity="0.377349"/>
<stop offset="1" stop-color="#2850C5"/>
</linearGradient>
<linearGradient id="paint54_linear_781_8081" x1="204.5" y1="90.5" x2="637" y2="-34.5" gradientUnits="userSpaceOnUse">
<stop stop-color="#2850C5" stop-opacity="0.32"/>
<stop offset="0.351405" stop-color="#1E45B7" stop-opacity="0.377349"/>
<stop offset="1" stop-color="#2850C5"/>
</linearGradient>
<linearGradient id="paint55_linear_781_8081" x1="204.5" y1="90.5" x2="637" y2="-34.5" gradientUnits="userSpaceOnUse">
<stop stop-color="#2850C5" stop-opacity="0.32"/>
<stop offset="0.351405" stop-color="#1E45B7" stop-opacity="0.377349"/>
<stop offset="1" stop-color="#2850C5"/>
</linearGradient>
<linearGradient id="paint56_linear_781_8081" x1="204.5" y1="90.5" x2="637" y2="-34.5" gradientUnits="userSpaceOnUse">
<stop stop-color="#2850C5" stop-opacity="0.32"/>
<stop offset="0.351405" stop-color="#1E45B7" stop-opacity="0.377349"/>
<stop offset="1" stop-color="#2850C5"/>
</linearGradient>
</defs>
</svg>
