<svg xmlns="http://www.w3.org/2000/svg" width="241" height="233" viewBox="0 0 241 233" fill="none">
<path opacity="0.05" d="M190.555 73.7989L147.819 98.4277C137.871 81.2292 115.839 75.3366 98.6088 85.2661C81.3787 95.1956 75.4752 117.187 85.423 134.386C95.2713 151.412 116.963 157.358 134.115 147.84L134.633 147.547L159.307 190.206C118.474 213.737 66.2612 199.772 42.6862 159.014C19.1113 118.256 33.1017 66.1394 73.9347 42.6078C114.359 19.3115 165.937 32.7653 189.84 72.5842L190.555 73.7989Z" fill="#0384F2"/>
<g clip-path="url(#clip0_711_15619)">
<path d="M152.339 178.306L151.822 183.358L142.574 186.314L137.346 184.793L139.702 174.144L152.339 178.306Z" fill="#FC8165"/>
<path d="M164.488 103.478C164.488 103.478 170.261 126.469 168.452 143.432C166.613 160.395 158.198 181.204 158.198 181.204L135.739 177.013L143.263 151.87L148.663 104.598L164.488 103.478Z" fill="#28333F"/>
<path d="M135.824 194.176C136.025 190.244 136.6 184.446 137.26 183.872C138.266 183.011 139.931 183.901 143.55 184.418C147.169 184.934 149.725 181.892 151.075 181.26C152.425 180.6 154.866 184.188 157.049 185.709C159.261 187.202 165.378 188.206 168.279 190.445C169.514 191.421 170.318 193.028 170.835 194.55C171.323 195.956 171.582 197.305 171.697 198.022C171.725 198.338 171.524 198.654 171.208 198.683C167.561 199.113 148.634 198.826 147.485 198.223C146.279 197.563 145.274 196.186 144.441 195.726C143.608 195.267 142.315 198.166 141.856 198.051C141.425 197.908 136.284 198.482 135.882 197.764C135.738 197.506 135.738 196.071 135.824 194.176Z" fill="#12A5BF"/>
<path d="M140.851 177.903C140.832 177.903 140.812 177.903 140.793 177.903C140.678 177.874 140.592 177.73 140.621 177.615L144.872 161.026C144.9 160.882 145.044 160.825 145.159 160.853C145.302 160.882 145.36 160.997 145.331 161.14L141.08 177.73C141.052 177.816 140.966 177.903 140.851 177.903Z" fill="#EBEBEB" fill-opacity="0.51"/>
<path d="M135.824 194.178L170.835 194.551C171.323 195.957 171.582 197.306 171.697 198.024C171.725 198.34 171.524 198.655 171.208 198.684C167.561 199.115 148.634 198.827 147.485 198.225C146.279 197.565 145.274 196.187 144.441 195.728C143.608 195.268 142.315 198.167 141.856 198.053C141.425 197.909 136.284 198.483 135.882 197.766C135.738 197.507 135.738 196.072 135.824 194.178Z" fill="#90C8CF"/>
<path d="M129.334 125.866L133.757 130.43L125.916 142.772L118.104 134.994L129.334 125.866Z" fill="#FC8165"/>
<path d="M124.652 116.853C127.151 119.896 130.626 124.603 130.511 125.493C130.339 126.784 128.501 127.215 125.485 129.253C122.441 131.319 122.556 135.28 121.981 136.658C121.435 138.036 117.213 137.002 114.571 137.347C111.929 137.72 106.702 141.078 103.054 141.336C101.503 141.423 99.8087 140.791 98.4014 139.987C97.109 139.27 96.0176 138.437 95.4432 137.978C95.1847 137.777 95.156 137.404 95.357 137.175C97.7983 134.419 112.044 121.962 113.307 121.647C114.657 121.331 116.323 121.704 117.242 121.474C118.161 121.245 117.185 118.231 117.616 118.03C118.018 117.829 121.435 113.954 122.24 114.242C122.498 114.328 123.475 115.418 124.652 116.853Z" fill="#12A5BF"/>
<path d="M124.652 116.853L98.4014 139.987C97.109 139.27 96.0176 138.437 95.4432 137.978C95.1847 137.777 95.156 137.404 95.357 137.175C97.7983 134.419 112.044 121.962 113.307 121.647C114.657 121.331 116.323 121.704 117.242 121.474C118.161 121.245 117.185 118.231 117.616 118.03C118.018 117.829 121.435 113.954 122.24 114.242C122.498 114.328 123.475 115.418 124.652 116.853Z" fill="#90C8CF"/>
<path d="M157.825 103.966L158.14 141.337C158.14 141.337 157.796 163.437 140.477 161.055C126.548 159.132 132.349 137.376 132.349 137.376C132.349 137.376 133.613 127.875 134.388 120.815C135.164 113.754 136.83 105.43 136.83 105.43L157.825 103.966Z" fill="#28333F"/>
<path d="M117.845 138.552L132.177 126.181L136.428 132.209L137.576 160.28C137.576 160.28 131.344 159.447 117.845 138.552Z" fill="#28333F"/>
<path d="M142.459 161.428C141.224 161.428 140.477 161.284 140.448 161.284C140.305 161.256 140.219 161.112 140.247 160.997C140.276 160.854 140.42 160.768 140.535 160.796C140.621 160.825 148.663 162.318 154.033 155.2C161.529 145.326 156.388 116.538 156.331 116.251C156.331 116.174 156.35 116.107 156.388 116.05C156.427 116.011 156.484 115.983 156.561 115.964L164.172 115.361C164.315 115.361 164.43 115.447 164.43 115.562C164.459 115.705 164.344 115.82 164.229 115.82L156.848 116.423C157.394 119.523 161.759 145.843 154.435 155.487C150.529 160.653 145.274 161.428 142.459 161.428Z" fill="#EBEBEB" fill-opacity="0.51"/>
<path d="M138.093 114.844C138.007 114.844 137.921 114.786 137.864 114.7C137.806 114.585 137.864 114.442 137.979 114.384C140.966 112.949 142.947 109.189 142.976 109.132C143.033 109.017 143.177 108.988 143.292 109.046C143.407 109.103 143.464 109.247 143.378 109.362C143.292 109.534 141.31 113.294 138.18 114.815C138.16 114.834 138.132 114.844 138.093 114.844Z" fill="#EBEBEB" fill-opacity="0.51"/>
<path d="M158.112 71.7057C161.3 74.6046 164.488 103.479 164.488 103.479L137.864 110.942C137.864 110.942 123.733 99.0876 127.237 87.8364C130.741 76.5851 141.195 74.3463 141.195 74.3463C141.195 74.3463 154.924 68.8355 158.112 71.7057Z" fill="#FCC60C"/>
<path d="M149.18 68.1171C149.18 68.1171 150.616 57.3251 164.488 54.6845C178.389 52.0726 186.718 69.2939 186.718 69.2939L145.791 76.7852L149.18 68.1171Z" fill="#FCC60C"/>
<path d="M176.148 66.4237C176.091 66.4237 176.043 66.4046 176.005 66.3663L173.362 64.1275C173.276 64.0414 173.248 63.8979 173.334 63.7831C173.42 63.697 173.564 63.6683 173.678 63.7544L176.321 65.9932C176.407 66.0793 176.436 66.2515 176.349 66.3376C176.292 66.395 176.235 66.4237 176.148 66.4237Z" fill="white"/>
<path d="M138.093 68.8347C138.093 68.8347 135.221 66.1367 135.566 63.3239C135.882 60.5397 138.18 60.7407 138.18 60.7407C138.18 60.7407 138.668 57.6121 141.023 56.464C143.378 55.3159 144.871 57.0381 144.871 57.0381C144.871 57.0381 149.151 54.4836 150.903 57.3825C152.626 60.3101 148.174 63.3813 148.174 63.3813L138.093 68.8347Z" fill="#263238"/>
<path d="M141.195 70.8158L146.738 72.5093L146.853 75.1786L146.939 76.872C146.939 76.872 146.106 78.3645 143.78 77.9914C140.678 77.5035 139.845 75.8674 139.845 75.8674L140.247 70.5288L141.195 70.8158Z" fill="#F7A795"/>
<path d="M146.738 72.5084L146.853 75.1777C145.532 74.9481 142.287 74.1157 141.31 71.3316C141.233 71.1402 141.195 70.968 141.195 70.8149L146.738 72.5084Z" fill="#263238"/>
<path d="M148.892 60.4243C148.892 60.4243 151.161 67.3415 149.783 70.958C148.375 74.6032 145.015 73.6847 143.062 72.7949C141.08 71.8765 140.248 70.5275 140.248 70.5275C140.248 70.5275 138.295 70.9867 137.174 69.121C136.083 67.2267 137.06 65.2749 138.18 64.9018C139.328 64.5287 140.535 65.4472 140.535 65.4472L139.702 63.4093C139.702 63.4093 144.9 53.995 148.892 60.4243Z" fill="#F7A795"/>
<path d="M140.132 68.3472C140.075 68.3472 140.018 68.3281 139.96 68.2898L137.691 66.3668C137.605 66.2807 137.576 66.1372 137.663 66.0223C137.749 65.9362 137.921 65.9075 138.007 65.9936L140.276 67.9167C140.391 68.0028 140.391 68.1463 140.305 68.2611C140.276 68.3185 140.19 68.3472 140.132 68.3472Z" fill="#263238"/>
<path d="M137.921 68.1463C137.806 68.1463 137.72 68.0602 137.691 67.9454C137.663 67.8019 137.749 67.6871 137.892 67.6584L139.501 67.3713C139.644 67.3713 139.759 67.4574 139.788 67.5723C139.817 67.7158 139.731 67.8306 139.587 67.8593L137.979 68.1463C137.959 68.1463 137.94 68.1463 137.921 68.1463Z" fill="#263238"/>
<path d="M144.211 62.893C144.154 62.893 144.096 62.8739 144.039 62.8356C143.953 62.7495 143.953 62.606 144.039 62.5199C144.843 61.6014 145.819 61.8597 146.193 62.118C146.308 62.2041 146.336 62.3477 146.279 62.4625C146.193 62.5486 146.049 62.606 145.934 62.5199C145.906 62.4912 145.101 62.0032 144.383 62.8356C144.326 62.8739 144.269 62.893 144.211 62.893Z" fill="#263238"/>
<path d="M149.409 63.0655C149.352 63.0655 149.295 63.0368 149.237 62.9794C148.72 62.4914 148.117 62.7785 148.117 62.7785C147.973 62.8359 147.83 62.7785 147.801 62.6636C147.744 62.5488 147.772 62.4053 147.887 62.3479C147.945 62.3479 148.806 61.9174 149.582 62.6636C149.668 62.7498 149.668 62.8933 149.582 62.9794C149.524 63.0368 149.467 63.0655 149.409 63.0655Z" fill="#263238"/>
<path d="M147.945 68.6345C147.906 68.6345 147.878 68.6345 147.859 68.6345C147.744 68.5771 147.686 68.4336 147.715 68.3188C148.433 66.4531 147.313 65.305 147.255 65.2476C147.169 65.1615 147.169 65.018 147.255 64.9032C147.37 64.8171 147.514 64.8171 147.6 64.9032C147.657 64.9606 148.979 66.3383 148.174 68.491C148.117 68.5771 148.031 68.6345 147.945 68.6345Z" fill="#263238"/>
<path d="M149.18 65.6195C149.065 65.6195 148.979 65.5334 148.95 65.4186L148.72 64.1844C148.691 64.0409 148.778 63.926 148.892 63.8973C149.036 63.8686 149.151 63.9547 149.18 64.0983L149.409 65.3325C149.438 65.476 149.352 65.5908 149.237 65.6195C149.218 65.6195 149.199 65.6195 149.18 65.6195Z" fill="#263238"/>
<path d="M145.791 65.4203C145.676 65.4203 145.589 65.3629 145.561 65.248L145.331 63.9851C145.302 63.8416 145.388 63.7268 145.503 63.6981C145.647 63.6694 145.762 63.7555 145.791 63.899L146.02 65.1332C146.049 65.2767 145.963 65.3916 145.848 65.4203C145.829 65.4203 145.81 65.4203 145.791 65.4203Z" fill="#263238"/>
<path d="M149.323 61.9747C149.323 61.9747 148.835 60.8553 147.514 60.7405C146.164 60.6257 145.331 61.4868 145.331 61.4868C145.331 61.4868 145.733 63.783 143.809 64.8449C141.913 65.8782 140.535 65.4477 140.535 65.4477L139.242 64.8736L138.438 62.8645L142.574 59.0758L147.686 56.8657L150.041 59.3341L149.323 61.9747Z" fill="#263238"/>
<path d="M146.624 70.0972C146.48 70.0972 145.188 70.0685 144.728 68.8056C144.671 68.6908 144.728 68.5473 144.843 68.5186C144.987 68.4612 145.101 68.5186 145.159 68.6334C145.532 69.6093 146.566 69.6093 146.624 69.6093C146.739 69.6093 146.853 69.7241 146.853 69.8676C146.853 69.9824 146.767 70.0972 146.624 70.0972Z" fill="#263238"/>
<path d="M172.357 67.3708C172.357 67.3708 172.348 67.3708 172.328 67.3708C172.185 67.3421 172.099 67.2273 172.127 67.1125C172.874 62.7784 176.091 60.6832 176.235 60.5971C176.349 60.5397 176.493 60.5684 176.55 60.6832C176.637 60.798 176.608 60.9415 176.493 60.9989C176.464 61.0276 173.305 63.0655 172.587 67.1699C172.587 67.2847 172.472 67.3708 172.357 67.3708Z" fill="white"/>
<path d="M156.733 84.3063L155.01 81.3787C154.349 80.2306 155.153 79.0825 155.699 78.6519C155.814 78.5371 155.986 78.5658 156.073 78.6806C156.187 78.7955 156.159 78.9677 156.044 79.0538C155.986 79.1112 154.895 80.0871 155.498 81.0916L157.221 84.0193L156.733 84.3063Z" fill="#EF4E16"/>
<path d="M224.805 73.2586V100.63C224.805 103.724 222.301 106.246 219.192 106.246H216.235C215.462 106.246 214.823 106.868 214.823 107.641V110.987C214.823 112.735 213.059 113.929 211.446 113.257L194.592 106.346C194.424 106.279 194.245 106.246 194.054 106.246H165.32C162.228 106.246 159.708 103.724 159.708 100.63V73.2586C159.708 70.165 162.228 67.6431 165.32 67.6431H219.192C222.301 67.6431 224.805 70.165 224.805 73.2586Z" fill="#4278EF"/>
<path d="M214.823 110.062V110.987C214.823 112.735 213.059 113.929 211.446 113.257L194.592 106.346C194.424 106.279 194.245 106.246 194.054 106.246H165.32C162.228 106.246 159.708 103.724 159.708 100.63V73.2586C159.708 70.165 162.228 67.6431 165.32 67.6431H184.678C182.846 69.6102 181.519 71.9976 180.847 74.5196C179.586 79.2608 180.527 84.3551 182.829 88.7433C185.148 93.1315 188.744 96.864 192.828 99.9744C199.179 104.85 206.791 108.314 214.823 110.062Z" fill="#3866CC"/>
<path d="M217.697 88.3218H166.833C166.312 88.3218 165.908 87.9015 165.908 87.3971C165.908 86.8759 166.312 86.4556 166.833 86.4556H217.697C218.201 86.4556 218.621 86.8759 218.621 87.3971C218.621 87.9015 218.201 88.3218 217.697 88.3218Z" fill="white" fill-opacity="0.68"/>
<path d="M181.788 86.4556C182.034 87.0945 182.314 87.7165 182.628 88.3218H174.73H166.833C166.312 88.3218 165.908 87.9015 165.908 87.3971C165.908 86.8759 166.312 86.4556 166.833 86.4556H181.788Z" fill="#8CA2D1"/>
<path d="M217.697 94.1897H166.833C166.312 94.1897 165.908 93.7694 165.908 93.2482C165.908 92.7438 166.312 92.3235 166.833 92.3235H217.697C218.201 92.3235 218.621 92.7438 218.621 93.2482C218.621 93.7694 218.201 94.1897 217.697 94.1897Z" fill="white" fill-opacity="0.68"/>
<path d="M185.098 92.3235C185.569 92.9624 186.067 93.5845 186.594 94.1897H166.833C166.312 94.1897 165.908 93.7694 165.908 93.2482C165.908 92.7438 166.312 92.3235 166.833 92.3235H185.098Z" fill="#8CA2D1"/>
<path d="M217.697 100.041H166.833C166.312 100.041 165.908 99.6376 165.908 99.1164C165.908 98.5952 166.312 98.1917 166.833 98.1917H217.697C218.201 98.1917 218.621 98.5952 218.621 99.1164C218.621 99.6376 218.201 100.041 217.697 100.041Z" fill="white" fill-opacity="0.68"/>
<path d="M166.833 98.1917H190.61C191.327 98.8081 192.066 99.4022 192.828 99.9738C192.85 99.9962 192.878 100.019 192.912 100.041H166.833C166.312 100.041 165.908 99.6376 165.908 99.1164C165.908 98.5952 166.312 98.1917 166.833 98.1917Z" fill="#8CA2D1"/>
<path d="M169.521 80.1012L167.74 81.0427C167.471 81.194 167.169 80.9586 167.219 80.6728L167.555 78.6721C167.589 78.5544 167.538 78.4535 167.454 78.3694L166.009 76.9403C165.808 76.7386 165.909 76.3855 166.211 76.3519L168.211 76.0492C168.328 76.0324 168.429 75.9652 168.479 75.8643L169.37 74.0317C169.504 73.7795 169.874 73.7795 170.009 74.0317L170.899 75.8643C170.966 75.9652 171.05 76.0324 171.168 76.0492L173.184 76.3519C173.47 76.3855 173.588 76.7386 173.369 76.9403L171.924 78.3694C171.84 78.4535 171.807 78.5544 171.823 78.6721L172.159 80.6728C172.21 80.9586 171.907 81.194 171.655 81.0427L169.857 80.1012C169.757 80.0507 169.639 80.0507 169.521 80.1012Z" fill="#FFA236"/>
<path d="M180.813 80.1012L179.015 81.0427C178.763 81.194 178.461 80.9586 178.511 80.6728L178.847 78.6721C178.864 78.5544 178.83 78.4535 178.746 78.3694L177.301 76.9403C177.083 76.7386 177.2 76.3855 177.486 76.3519L179.502 76.0492C179.603 76.0324 179.704 75.9652 179.754 75.8643L180.662 74.0317C180.796 73.7795 181.166 73.7795 181.3 74.0317L182.191 75.8643C182.241 75.9652 182.342 76.0324 182.46 76.0492L184.459 76.3519C184.762 76.3855 184.863 76.7386 184.661 76.9403L183.199 78.3694C183.132 78.4535 183.082 78.5544 183.098 78.6721L183.451 80.6728C183.502 80.9586 183.199 81.194 182.93 81.0427L181.149 80.1012C181.031 80.0507 180.914 80.0507 180.813 80.1012Z" fill="#FFA236"/>
<path d="M192.105 80.1012L190.307 81.0427C190.038 81.194 189.736 80.9586 189.786 80.6728L190.139 78.6721C190.156 78.5544 190.105 78.4535 190.038 78.3694L188.576 76.9403C188.375 76.7386 188.476 76.3855 188.778 76.3519L190.778 76.0492C190.895 76.0324 190.996 75.9652 191.046 75.8643L191.937 74.0317C192.071 73.7795 192.441 73.7795 192.576 74.0317L193.483 75.8643C193.533 75.9652 193.634 76.0324 193.735 76.0492L195.751 76.3519C196.037 76.3855 196.155 76.7386 195.936 76.9403L194.491 78.3694C194.407 78.4535 194.374 78.5544 194.39 78.6721L194.726 80.6728C194.777 80.9586 194.474 81.194 194.222 81.0427L192.424 80.1012C192.324 80.0507 192.206 80.0507 192.105 80.1012Z" fill="#FFA236"/>
<path d="M203.38 80.1012L201.582 81.0427C201.33 81.194 201.028 80.9586 201.078 80.6728L201.414 78.6721C201.431 78.5544 201.397 78.4535 201.313 78.3694L199.868 76.9403C199.65 76.7386 199.767 76.3855 200.053 76.3519L202.069 76.0492C202.187 76.0324 202.288 75.9652 202.338 75.8643L203.229 74.0317C203.363 73.7795 203.733 73.7795 203.867 74.0317L204.758 75.8643C204.808 75.9652 204.909 76.0324 205.027 76.0492L207.027 76.3519C207.329 76.3855 207.447 76.7386 207.228 76.9403L205.783 78.3694C205.699 78.4535 205.649 78.5544 205.682 78.6721L206.018 80.6728C206.069 80.9586 205.766 81.194 205.497 81.0427L203.716 80.1012C203.599 80.0507 203.481 80.0507 203.38 80.1012Z" fill="#FFA236"/>
<path d="M214.672 80.1012L212.874 81.0427C212.605 81.194 212.303 80.9586 212.353 80.6728L212.706 78.6721C212.723 78.5544 212.689 78.4535 212.605 78.3694L211.144 76.9403C210.942 76.7386 211.059 76.3855 211.345 76.3519L213.345 76.0492C213.462 76.0324 213.563 75.9652 213.614 75.8643L214.521 74.0317C214.639 73.7795 215.025 73.7795 215.143 74.0317L216.05 75.8643C216.101 75.9652 216.201 76.0324 216.302 76.0492L218.319 76.3519C218.604 76.3855 218.722 76.7386 218.52 76.9403L217.058 78.3694C216.974 78.4535 216.941 78.5544 216.958 78.6721L217.31 80.6728C217.344 80.9586 217.042 81.194 216.79 81.0427L214.992 80.1012C214.891 80.0507 214.773 80.0507 214.672 80.1012Z" fill="#FFA236"/>
<path d="M226.754 76.8398L223.881 78.3529C223.461 78.5715 222.973 78.2184 223.058 77.7645L223.612 74.5532C223.646 74.3683 223.578 74.1833 223.444 74.0488L221.108 71.7791C220.772 71.4596 220.957 70.888 221.428 70.8207L224.654 70.35C224.839 70.3163 224.99 70.1987 225.074 70.0305L226.519 67.1219C226.721 66.7016 227.326 66.7016 227.527 67.1219L228.956 70.0305C229.04 70.1987 229.208 70.3163 229.392 70.35L232.602 70.8207C233.072 70.888 233.257 71.4596 232.921 71.7791L230.586 74.0488C230.451 74.1833 230.401 74.3683 230.434 74.5532L230.972 77.7645C231.056 78.2184 230.569 78.5715 230.165 78.3529L227.275 76.8398C227.124 76.7557 226.922 76.7557 226.754 76.8398Z" fill="#FFA236"/>
<path d="M169.521 80.1012L167.74 81.0427C167.471 81.194 167.169 80.9586 167.219 80.6728L167.555 78.6721C167.589 78.5544 167.538 78.4535 167.454 78.3694L166.009 76.9403C165.807 76.7386 165.908 76.3855 166.211 76.3519L168.21 76.0492C168.328 76.0324 168.429 75.9652 168.479 75.8643L169.37 74.0317C169.504 73.7795 169.874 73.7795 170.008 74.0317L170.361 74.7546C169.672 75.2086 169.202 75.982 169.135 76.7722C169.034 77.9323 169.706 79.0924 170.68 79.8153C171.117 80.1516 171.621 80.4206 172.159 80.6055V80.6728C172.21 80.9586 171.907 81.194 171.655 81.0427L169.857 80.1012C169.756 80.0507 169.639 80.0507 169.521 80.1012Z" fill="#EA9636"/>
<path d="M180.813 80.1012L179.015 81.0427C178.763 81.194 178.461 80.9586 178.511 80.6728L178.847 78.6721C178.864 78.5544 178.83 78.4535 178.746 78.3694L177.301 76.9403C177.083 76.7386 177.2 76.3855 177.486 76.3519L179.502 76.0492C179.603 76.0324 179.704 75.9652 179.755 75.8643L180.662 74.0317C180.796 73.7795 181.166 73.7795 181.3 74.0317L181.653 74.7546C180.948 75.2086 180.477 75.982 180.41 76.7722C180.326 77.9323 180.981 79.0924 181.956 79.8153C182.41 80.1516 182.897 80.4206 183.435 80.6055L183.451 80.6728C183.502 80.9586 183.199 81.194 182.93 81.0427L181.149 80.1012C181.032 80.0507 180.914 80.0507 180.813 80.1012Z" fill="#EA9636"/>
<path d="M192.105 80.1012L190.307 81.0427C190.038 81.194 189.736 80.9586 189.786 80.6728L190.139 78.6721C190.156 78.5544 190.105 78.4535 190.038 78.3694L188.576 76.9403C188.375 76.7386 188.476 76.3855 188.778 76.3519L190.778 76.0492C190.895 76.0324 190.996 75.9652 191.046 75.8643L191.937 74.0317C192.071 73.7795 192.441 73.7795 192.576 74.0317L192.928 74.7546C192.24 75.2086 191.769 75.982 191.702 76.7722C191.601 77.9323 192.273 79.0924 193.248 79.8153C193.685 80.1516 194.189 80.4206 194.726 80.6055V80.6728C194.777 80.9586 194.474 81.194 194.222 81.0427L192.424 80.1012C192.324 80.0507 192.206 80.0507 192.105 80.1012Z" fill="#EA9636"/>
<path d="M203.381 80.1012L201.583 81.0427C201.331 81.194 201.028 80.9586 201.078 80.6728L201.415 78.6721C201.431 78.5544 201.398 78.4535 201.314 78.3694L199.869 76.9403C199.65 76.7386 199.768 76.3855 200.053 76.3519L202.07 76.0492C202.187 76.0324 202.288 75.9652 202.339 75.8643L203.229 74.0317C203.364 73.7795 203.733 73.7795 203.868 74.0317L204.221 74.7546C203.532 75.2086 203.044 75.982 202.994 76.7722C202.893 77.9323 203.549 79.0924 204.523 79.8153C204.977 80.1516 205.481 80.4206 206.002 80.6055L206.019 80.6728C206.069 80.9586 205.767 81.194 205.498 81.0427L203.717 80.1012C203.599 80.0507 203.481 80.0507 203.381 80.1012Z" fill="#EA9636"/>
<path d="M214.672 80.1012L212.874 81.0427C212.606 81.194 212.303 80.9586 212.353 80.6728L212.706 78.6721C212.723 78.5544 212.69 78.4535 212.606 78.3694L211.144 76.9403C210.942 76.7386 211.06 76.3855 211.345 76.3519L213.345 76.0492C213.463 76.0324 213.563 75.9652 213.614 75.8643L214.521 74.0317C214.639 73.7795 215.025 73.7795 215.143 74.0317L215.496 74.7546C214.807 75.2086 214.336 75.982 214.269 76.7722C214.168 77.9323 214.84 79.0924 215.815 79.8153C216.252 80.1516 216.756 80.4206 217.294 80.6055L217.311 80.6728C217.344 80.9586 217.042 81.194 216.79 81.0427L214.992 80.1012C214.891 80.0507 214.773 80.0507 214.672 80.1012Z" fill="#EA9636"/>
<path d="M226.754 76.8398L223.881 78.3529C223.461 78.5715 222.973 78.2184 223.057 77.7645L223.612 74.5532C223.646 74.3683 223.578 74.1833 223.444 74.0488L221.108 71.7791C220.772 71.4596 220.957 70.888 221.427 70.8207L224.654 70.35C224.839 70.3163 224.99 70.1987 225.074 70.0305L226.519 67.1219C226.721 66.7016 227.325 66.7016 227.527 67.1219L228.082 68.2652C226.989 68.9881 226.233 70.2323 226.116 71.5101C225.964 73.3763 227.023 75.2089 228.586 76.3858C229.308 76.9238 230.115 77.3442 230.955 77.6468L230.972 77.7645C231.056 78.2184 230.569 78.5715 230.165 78.3529L227.275 76.8398C227.124 76.7557 226.922 76.7557 226.754 76.8398Z" fill="#EA9636"/>
<path d="M180.514 60.1952C181.893 59.9656 182.352 61.5442 182.352 61.5442C182.352 61.5442 183.041 60.2813 184.219 60.6831C186.718 61.5442 186.028 69.8678 184.736 70.2123C183.558 70.528 182.869 68.0596 182.869 68.0596C182.869 68.0596 182.237 70.241 180.859 70.2123C179.509 70.1836 179.25 68.0596 179.25 68.0596C179.25 68.0596 178.446 70.528 177.125 70.2123C175.919 69.8965 174.626 63.4098 176.12 61.1137C177.613 58.8175 179.25 61.5442 179.25 61.5442C179.25 61.5442 179.164 60.3961 180.514 60.1952Z" fill="#F7A795"/>
<path d="M166.929 95.8147C167.044 95.9583 167.073 96.1305 167.073 96.3027L167.848 99.259L165.637 97.135C165.493 97.0489 165.378 96.9341 165.292 96.7906L155.154 79.5406C154.866 79.0813 155.01 78.4499 155.469 78.1916C155.929 77.9332 156.532 78.1055 156.819 78.5934L166.929 95.8147Z" fill="#F22457"/>
<path d="M153.229 96.4463C153.229 96.4463 152.138 89.2994 152.942 87.4338C153.373 86.3718 155.182 85.2237 156.704 84.42C157.939 83.7599 159.49 84.2478 160.122 85.482C160.122 85.482 165.493 86.1135 166.01 87.0032C166.527 87.9217 165.062 88.5819 165.062 88.5819C165.062 88.5819 166.182 92.9446 165.809 93.777C165.579 94.2362 163.396 95.3556 161.558 96.2167C159.921 96.9916 158.083 97.2212 156.302 96.9342L153.229 96.4463Z" fill="#F7A795"/>
<path d="M160.122 85.7118H156.819C156.704 85.7118 156.59 85.6255 156.59 85.4817C156.59 85.3667 156.704 85.2517 156.819 85.2517H160.122C160.266 85.2517 160.381 85.3667 160.381 85.4817C160.381 85.6255 160.266 85.7118 160.122 85.7118Z" fill="black"/>
<path d="M163.856 88.8979C163.712 88.8979 163.626 88.8116 163.597 88.6678C163.597 88.5528 163.683 88.4378 163.827 88.409L165.033 88.3228C165.177 88.3228 165.292 88.409 165.292 88.5528C165.292 88.6966 165.206 88.8116 165.062 88.8116L163.856 88.8979Z" fill="black"/>
<path d="M179.25 68.0011C179.107 68.0011 179.021 67.8863 179.021 67.7715V61.5431C179.021 61.4283 179.107 61.3135 179.25 61.3135C179.365 61.3135 179.48 61.4283 179.48 61.5431V67.7715C179.48 67.8863 179.365 68.0011 179.25 68.0011Z" fill="#263238"/>
<path d="M182.869 68.2881C182.725 68.2881 182.639 68.202 182.639 68.0585L182.122 61.5718C182.122 61.457 182.208 61.3422 182.352 61.3135C182.496 61.3135 182.582 61.3996 182.61 61.5431L183.099 68.0298C183.099 68.1733 183.013 68.2881 182.869 68.2881Z" fill="#263238"/>
<path d="M157.825 98.9731C157.825 98.9731 145.446 111.746 136.313 110.942C127.18 110.11 122.929 101.011 125.858 89.5588C128.817 78.1066 139.932 74.7197 139.932 74.7197L138.438 92.6012L152.942 87.4348L157.825 98.9731Z" fill="#FCC60C"/>
<path d="M144.383 78.2489C141.999 78.2489 139.759 76.1537 139.673 76.0389C139.587 75.9528 139.587 75.8092 139.673 75.7231C139.759 75.6083 139.903 75.6083 140.018 75.6944C140.018 75.7231 141.052 76.699 142.43 77.3018C144.182 78.0767 145.647 77.8758 146.767 76.7277C146.853 76.6129 146.997 76.6129 147.083 76.699C147.198 76.7851 147.198 76.9573 147.112 77.0434C146.365 77.8184 145.503 78.2202 144.498 78.2489C144.46 78.2489 144.422 78.2489 144.383 78.2489Z" fill="white"/>
<path d="M155.556 101.498C155.441 101.498 155.355 101.441 155.326 101.355L149.898 88.5248C148.577 88.8405 140.678 90.6775 135.02 93.0597C134.905 93.1172 134.762 93.0597 134.704 92.9162C134.647 92.8014 134.704 92.6579 134.819 92.6292C141.023 89.9886 149.898 88.0656 149.984 88.0369C150.099 88.0082 150.214 88.0656 150.242 88.1804L155.757 101.154C155.814 101.297 155.757 101.441 155.642 101.47C155.604 101.489 155.575 101.498 155.556 101.498Z" fill="white"/>
<path fill-rule="evenodd" clip-rule="evenodd" d="M138.065 91.135C136.198 91.135 134.158 90.9915 133.957 90.4175C133.9 90.274 133.9 90.0444 134.216 89.786C135.796 88.4944 140.391 90.5323 140.592 90.6184C140.678 90.6471 140.736 90.7619 140.707 90.8767C140.707 90.9628 140.621 91.0489 140.506 91.0489C139.874 91.0776 139.012 91.135 138.065 91.135ZM135.767 89.8147C135.25 89.8147 134.79 89.9295 134.503 90.1592C134.417 90.2453 134.388 90.274 134.388 90.274C134.618 90.5897 136.973 90.6758 139.357 90.6184C138.294 90.2453 136.858 89.8147 135.767 89.8147Z" fill="white"/>
<path d="M151.161 91.1353C151.075 91.1353 150.989 91.1066 150.932 91.0205C150.874 90.9057 150.932 90.7622 151.018 90.7048L153.66 89.1835C153.775 89.0974 153.919 89.1549 153.976 89.2697C154.033 89.3558 154.005 89.528 153.89 89.5854L151.276 91.1066C151.238 91.1257 151.2 91.1353 151.161 91.1353Z" fill="white"/>
<path d="M152.597 94.5519C152.511 94.5519 152.454 94.5232 152.396 94.437C152.339 94.3222 152.368 94.1787 152.483 94.1213L154.895 92.6288C155.01 92.5714 155.154 92.6001 155.211 92.7149C155.297 92.8297 155.24 92.9732 155.154 93.0306L152.741 94.5231C152.684 94.5423 152.636 94.5519 152.597 94.5519Z" fill="white"/>
<path d="M154.034 97.9104C153.976 97.9104 153.89 97.8817 153.861 97.853C153.775 97.7382 153.775 97.5947 153.89 97.5086L156.245 95.4707C156.36 95.3846 156.504 95.4133 156.59 95.4994C156.676 95.5855 156.676 95.7577 156.561 95.8438L154.177 97.853C154.139 97.8913 154.091 97.9104 154.034 97.9104Z" fill="white"/>
<path d="M150.041 88.4962C149.926 88.4962 149.84 88.4387 149.811 88.3239C149.754 88.2091 149.84 88.0656 149.955 88.0369L152.885 87.2046C152.999 87.1471 153.143 87.2333 153.172 87.3481C153.201 87.4916 153.143 87.6064 153 87.6638L150.099 88.4962C150.08 88.4962 150.06 88.4962 150.041 88.4962Z" fill="white"/>
<path d="M146.078 108.357C145.991 108.357 145.905 108.3 145.848 108.214C145.819 108.099 145.848 107.955 145.992 107.898C146.049 107.869 151.793 105.315 155.354 101.096L157.652 98.7994C157.738 98.7133 157.882 98.7133 157.968 98.7994C158.083 98.8856 158.083 99.0578 157.968 99.1439L155.728 101.44C152.109 105.717 146.221 108.3 146.164 108.329C146.145 108.348 146.116 108.357 146.078 108.357Z" fill="white"/>
<path d="M119.971 141.996C119.913 141.996 119.827 141.967 119.798 141.91C119.712 141.795 119.712 141.651 119.827 141.565L134.13 129.912C134.245 129.826 134.389 129.855 134.475 129.941C134.561 130.056 134.532 130.199 134.446 130.285L120.114 141.938C120.076 141.977 120.028 141.996 119.971 141.996Z" fill="#EBEBEB" fill-opacity="0.51"/>
<path d="M138.438 138.783C134.963 138.783 131.919 132.497 131.775 132.181C131.718 132.067 131.775 131.923 131.89 131.866C132.005 131.808 132.148 131.866 132.206 131.98C132.263 132.067 135.853 139.529 139.357 138.123C142.287 136.946 141.109 119.409 140.391 112.721C140.391 112.606 140.477 112.492 140.621 112.463C140.736 112.463 140.851 112.549 140.879 112.693C141.138 115.161 143.321 137.061 139.53 138.582C139.166 138.716 138.802 138.783 138.438 138.783Z" fill="#EBEBEB" fill-opacity="0.51"/>
</g>
<defs>
<clipPath id="clip0_711_15619">
<rect width="145.133" height="164.953" fill="white" transform="translate(95.2771 40.939)"/>
</clipPath>
</defs>
</svg>