<svg width="26" height="26" viewBox="0 0 26 26" fill="none" xmlns="http://www.w3.org/2000/svg">
<path d="M24.3753 13.2533C24.3753 12.318 24.2978 11.6355 24.1302 10.9277H13.2324V15.1491H19.6292C19.5003 16.1981 18.8038 17.778 17.2562 18.8396L17.2345 18.9809L20.6802 21.5969L20.9189 21.6202C23.1113 19.6359 24.3753 16.7163 24.3753 13.2533" fill="#4285F4"/>
<path d="M13.2323 24.3754C16.3662 24.3754 18.9971 23.3642 20.9188 21.6201L17.2561 18.8394C16.2759 19.5093 14.9604 19.9769 13.2323 19.9769C10.1629 19.9769 7.55778 17.9927 6.62912 15.25L6.493 15.2613L2.91014 17.9787L2.86328 18.1064C4.77198 21.8222 8.69261 24.3754 13.2323 24.3754Z" fill="#34A853"/>
<path d="M6.63087 15.2491C6.38583 14.5413 6.24402 13.783 6.24402 12.9994C6.24402 12.2157 6.38583 11.4574 6.61797 10.7496L6.61148 10.5989L2.98371 7.83789L2.86502 7.89322C2.07835 9.43518 1.62695 11.1667 1.62695 12.9994C1.62695 14.832 2.07835 16.5635 2.86502 18.1055L6.63087 15.2491" fill="#FBBC05"/>
<path d="M13.2324 6.0233C15.4119 6.0233 16.8821 6.94594 17.7204 7.71696L20.9962 4.5825C18.9844 2.74987 16.3663 1.625 13.2324 1.625C8.69265 1.625 4.77199 4.17804 2.86328 7.89384L6.61625 10.7503C7.5578 8.00763 10.1629 6.0233 13.2324 6.0233" fill="#EB4335"/>
</svg>
